<svg xmlns="http://www.w3.org/2000/svg" width="82" height="92" viewBox="0 0 82 92">
  <path fill="#50E3C2" d="M38.0086564,1.51261993 L27.6460857,7.46584662 C26.6883178,8.01607782 26.357944,9.23855265 26.9081752,10.1963206 C27.0832501,10.5010673 27.3355394,10.7542982 27.6396317,10.9305073 L61.16111,30.3548332 C63.32152,31.6067025 64.651535,33.9145651 64.651535,36.4114728 L64.651535,45.0733708 C64.651535,47.5982673 63.3043913,49.9313294 61.1176452,51.1935673 L61.1176452,51.1935673 C59.9906978,51.8440661 58.5497928,51.4578282 57.899294,50.3308807 C57.6925797,49.9727614 57.5837555,49.566546 57.5837555,49.1530484 L57.5837555,40.7608433 C57.5837555,38.254463 56.2437153,35.9393501 54.0703652,34.6909543 L20.1494887,15.206437 C18.2987858,14.1433732 16.0226781,14.1434583 14.1720546,15.2066604 L3.77312199,21.1809532 C1.91046943,22.2510661 0.7620335,24.2353261 0.7620335,26.3834919 L0.7620335,65.5121087 C0.7620335,67.6557765 1.90570554,69.6365954 3.76221335,70.708365 L37.9976998,90.4726524 C39.8539078,91.5442489 42.1407707,91.5443149 43.9970404,90.4728254 L78.2374871,70.7083073 C80.0941638,69.6365829 81.2379666,67.6556694 81.2379666,65.511878 L81.2379666,26.3837506 C81.2379666,24.2354463 80.0893838,22.2510805 78.2265419,21.1810189 L43.9860768,1.51246495 C42.1353895,0.449385249 39.8592886,0.449444262 38.0086564,1.51261993 Z M28.6426315,62.4429321 L17.9649334,56.2804031 C16.9476032,55.6917801 16.1098213,54.062622 16.1098213,52.6547775 C16.1098213,51.2519302 16.9476032,50.5833473 17.9649334,51.1719703 L28.6426315,57.3348579 C29.6599655,57.9234848 30.4977455,59.5522842 30.4977455,60.9601287 C30.4977455,62.3629761 29.6599655,63.0315628 28.6426315,62.4429321 Z"/>
</svg>
